<svg width="30" height="30" viewBox="0 0 30 30" fill="none" xmlns="http://www.w3.org/2000/svg">
<path opacity="0.4" d="M19.6596 17.5405L23.3997 20.7855C24.1686 21.5817 24.1401 22.8568 23.3361 23.6332C22.5322 24.4096 21.2569 24.3935 20.488 23.5973L17.3755 19.7463C16.7723 19.1216 16.7946 18.1214 17.4253 17.5123C18.0571 16.9022 19.0564 16.9159 19.6596 17.5405Z" fill="white"/>
<path d="M8.0959 5.68179C8.20544 5.68318 8.64216 5.66181 9.0266 5.66665C11.3537 5.61331 16.2288 6.63391 18.3421 7.58972C18.6677 7.73026 19.4518 8.12359 19.7748 8.42843C20.0688 8.73291 20.2789 9.09213 20.4072 9.50407C20.5462 10.0391 20.5045 10.6133 20.2885 11.117C20.1311 11.4571 19.5232 12.3394 19.5095 12.3526C18.8308 13.3011 17.5689 14.6795 16.0856 16.1119C14.6741 17.475 13.3075 18.635 12.3484 19.3205C12.3205 19.3212 11.2359 20.0734 10.754 20.2172C9.87259 20.48 8.93424 20.2356 8.3189 19.5984L8.26535 19.543C7.87796 19.1143 7.39977 17.8897 7.41245 17.8775C6.6108 15.8147 5.73145 11.071 5.88096 8.67807C5.88096 8.67807 5.89121 8.03326 5.9577 7.69406C6.0372 7.18861 6.29353 6.72674 6.65696 6.37578C7.06266 5.98401 7.56006 5.74429 8.0959 5.68179Z" fill="white"/>
</svg>
