<svg width="27" height="26" viewBox="0 0 27 26" fill="none" xmlns="http://www.w3.org/2000/svg">
<path opacity="0.4" d="M20.132 20.738C19.5576 22.2107 18.158 23.1611 16.5809 23.1611H10.4187C8.83115 23.1611 7.44204 22.2107 6.86759 20.738C6.29315 19.2549 6.69004 17.6151 7.85982 16.5498L12.0898 12.7167H14.9203L19.1398 16.5498C20.3096 17.6151 20.696 19.2549 20.132 20.738Z" fill="#3A57E8"/>
<path d="M15.4016 19.1295H11.5999C11.203 19.1295 10.8896 18.8058 10.8896 18.4193C10.8896 18.0224 11.2134 17.7091 11.5999 17.7091H15.4016C15.7985 17.7091 16.1119 18.0329 16.1119 18.4193C16.1119 18.8058 15.7881 19.1295 15.4016 19.1295Z" fill="#3A57E8"/>
<path d="M20.132 4.69533C19.5576 3.22266 18.158 2.27222 16.5809 2.27222H10.4187C8.84157 2.27222 7.44201 3.22266 6.86757 4.69533C6.30357 6.17844 6.69001 7.81822 7.87023 8.88355L12.0898 12.7167H14.9202L19.1398 8.88355C20.3096 7.81822 20.696 6.17844 20.132 4.69533ZM15.4007 7.73466H11.5989C11.202 7.73466 10.8887 7.41088 10.8887 7.02444C10.8887 6.63799 11.2125 6.31422 11.5989 6.31422H15.4007C15.7976 6.31422 16.1109 6.63799 16.1109 7.02444C16.1109 7.41088 15.7871 7.73466 15.4007 7.73466Z" fill="#3A57E8"/>
</svg>
