<svg width="25" height="24" viewBox="0 0 25 24" fill="none" xmlns="http://www.w3.org/2000/svg">
<path opacity="0.4" d="M17.666 7.75C17.476 7.75 17.286 7.68 17.136 7.53C16.846 7.24 16.846 6.76 17.136 6.47L19.186 4.42C17.426 2.92 15.156 2 12.666 2C7.14602 2 2.66602 6.48 2.66602 12C2.66602 17.52 7.14602 22 12.666 22C18.186 22 22.666 17.52 22.666 12C22.666 9.51 21.746 7.24 20.246 5.48L18.196 7.53C18.046 7.68 17.856 7.75 17.666 7.75Z" fill="white"/>
<path d="M14.416 11.82L13.416 11.47V9.25H13.496C14.006 9.25 14.416 9.7 14.416 10.25C14.416 10.66 14.756 11 15.166 11C15.576 11 15.916 10.66 15.916 10.25C15.916 8.87 14.836 7.75 13.496 7.75H13.416V7.5C13.416 7.09 13.076 6.75 12.666 6.75C12.256 6.75 11.916 7.09 11.916 7.5V7.75H11.616C10.406 7.75 9.41602 8.77 9.41602 10.03C9.41602 11.49 10.266 11.96 10.916 12.19L11.916 12.54V14.76H11.836C11.326 14.76 10.916 14.31 10.916 13.76C10.916 13.35 10.576 13.01 10.166 13.01C9.75602 13.01 9.41602 13.35 9.41602 13.76C9.41602 15.14 10.496 16.26 11.836 16.26H11.916V16.51C11.916 16.92 12.256 17.26 12.666 17.26C13.076 17.26 13.416 16.92 13.416 16.51V16.26H13.716C14.926 16.26 15.916 15.24 15.916 13.98C15.916 12.51 15.066 12.04 14.416 11.82ZM11.406 10.76C11.066 10.64 10.916 10.57 10.916 10.02C10.916 9.59 11.236 9.24 11.616 9.24H11.916V10.93L11.406 10.76ZM13.716 14.75H13.416V13.06L13.926 13.24C14.266 13.36 14.416 13.43 14.416 13.98C14.416 14.4 14.096 14.75 13.716 14.75Z" fill="white"/>
<path d="M23.3563 1.70999C23.2763 1.52999 23.1363 1.38 22.9463 1.3C22.8563 1.26 22.7563 1.23999 22.6563 1.23999H18.6563C18.2463 1.23999 17.9062 1.57999 17.9062 1.98999C17.9062 2.39999 18.2463 2.73999 18.6563 2.73999H20.8463L19.1763 4.41C19.5563 4.74 19.9063 5.08999 20.2363 5.46999L21.9063 3.8V5.99999C21.9063 6.40999 22.2463 6.74999 22.6563 6.74999C23.0663 6.74999 23.4063 6.40999 23.4063 5.99999V1.99999C23.4163 1.89999 23.3963 1.80999 23.3563 1.70999Z" fill="white"/>
</svg>
