<svg width="19" height="19" viewBox="0 0 19 19" fill="none" xmlns="http://www.w3.org/2000/svg">
<path d="M2.11111 16.8889H17.9444C18.5274 16.8889 19 17.3615 19 17.9444C19 18.5274 18.5274 19 17.9444 19H1.05556C0.472588 19 0 18.5274 0 17.9444V1.05556C0 0.472588 0.472588 0 1.05556 0C1.63852 0 2.11111 0.472588 2.11111 1.05556V16.8889Z" fill="white"/>
<path opacity="0.5" d="M6.04828 12.333C5.64957 12.7583 4.98157 12.7798 4.55628 12.3811C4.13098 11.9824 4.10943 11.3144 4.50815 10.8891L8.46648 6.66689C8.85209 6.25557 9.49286 6.2199 9.92173 6.58588L13.0459 9.25183L17.1164 4.09587C17.4776 3.6383 18.1414 3.56022 18.599 3.92145C19.0565 4.28268 19.1346 4.94644 18.7734 5.404L14.0234 11.4207C13.6524 11.8906 12.9652 11.9582 12.5097 11.5695L9.31765 8.84566L6.04828 12.333Z" fill="white"/>
</svg>
