<svg width="25" height="24" viewBox="0 0 25 24" fill="none" xmlns="http://www.w3.org/2000/svg">
<path opacity="0.4" d="M10.324 17.98C14.7367 17.98 18.314 14.4028 18.314 9.99C18.314 5.57724 14.7367 2 10.324 2C5.91123 2 2.33398 5.57724 2.33398 9.99C2.33398 14.4028 5.91123 17.98 10.324 17.98Z" fill="white"/>
<path d="M22.3041 15.99C22.3041 19.29 19.6241 21.97 16.3241 21.97C14.2841 21.97 12.4941 20.95 11.4141 19.4C15.7741 18.91 19.2441 15.44 19.7341 11.08C21.2841 12.16 22.3041 13.95 22.3041 15.99Z" fill="white"/>
<path d="M11.784 9.71003L9.38398 8.87003C9.14398 8.79003 9.09398 8.77003 9.09398 8.42003C9.09398 8.16003 9.27398 7.95003 9.50398 7.95003H11.004C11.324 7.95003 11.584 8.24003 11.584 8.60003C11.584 9.01003 11.924 9.35003 12.334 9.35003C12.744 9.35003 13.084 9.01003 13.084 8.60003C13.084 7.45003 12.194 6.51003 11.084 6.46003V6.41003C11.084 6.00003 10.744 5.66003 10.334 5.66003C9.92398 5.66003 9.58398 5.99003 9.58398 6.41003V6.46003H9.49398C8.44398 6.46003 7.58398 7.34003 7.58398 8.43003C7.58398 9.38003 8.00398 9.99003 8.87398 10.29L11.284 11.13C11.524 11.21 11.574 11.23 11.574 11.58C11.574 11.84 11.394 12.05 11.164 12.05H9.66398C9.34398 12.05 9.08398 11.76 9.08398 11.4C9.08398 10.99 8.74398 10.65 8.33398 10.65C7.92398 10.65 7.58398 10.99 7.58398 11.4C7.58398 12.55 8.47398 13.49 9.58398 13.54V13.6C9.58398 14.01 9.92398 14.35 10.334 14.35C10.744 14.35 11.084 14.01 11.084 13.6V13.55H11.174C12.224 13.55 13.084 12.67 13.084 11.58C13.084 10.63 12.654 10.02 11.784 9.71003Z" fill="white"/>
</svg>
